# xmcd CD database file
#
# Track frame offsets:
#	150
#	22940
#	46600
#	74252
#	99095
#	125393
#	149058
#	172866
#	194985
#	218613
#
# Disc length: 3228 seconds
#
# Revision: 4
# Processed by: cddbd v1.5.2PL0 Copyright (c) Steve Scherf et al.
# Submitted via: CDex 1.51
#
DISCID=860c9a0a
DTITLE=VA - Work Beats - Computer Age Ambiant
DYEAR=2000
DGENRE=New Age
TTITLE0=Reverie
TTITLE1=Morning Mellow
TTITLE2=Behind the Eight ball
TTITLE3=No worries
TTITLE4=Friday yearning
TTITLE5=Chill
TTITLE6=All in a day
TTITLE7=Simply said
TTITLE8=Afterthought
TTITLE9=Sweet success
EXTD=YEAR: 2000
EXTT0=
EXTT1=
EXTT2=
EXTT3=
EXTT4=
EXTT5=
EXTT6=
EXTT7=
EXTT8=
EXTT9=
PLAYORDER=
